:FULLY-SPECIFIED
:FORCE-ALL-JOINTS-BE-3DOF
:DEGREES
372
root 9.33016 17.0675 16.0812 6.19326 3.9227 -3.02848
lfemur -34.8715 5.66087 -17.9003
ltibia 55.502 0 0
lfoot -14.4174 11.6295 0
ltoes -3.2582 0 0
rfemur -13.3637 6.1021 29.0437
rtibia 29.3983 0 0
rfoot -19.2867 3.07831 0
rtoes -14.1767 0 0
lowerback -5.737 0.300975 0.0919552
upperback -0.709182 0.325 2.77952
thorax 2.47415 0.152305 2.83624
lowerneck -19.9943 -6.23537 -12.4574
upperneck 21.4798 -8.09014 12.5492
head 11.3489 -3.2329 5.42085
lclavicle -1.06239e-15 1.10753e-14 0
lhumerus -46.4612 -17.9605 97.6773
lradius 28.1926 0 0
lwrist 12.0854 0 0
lhand -14.6174 -22.3133 0
lfingers 7.12502 0 0
lthumb 11.5338 7.34928 0
rclavicle -1.06239e-15 1.10753e-14 0
rhumerus -33.2592 18.1297 -83.9106
rradius 44.2138 0 0
rwrist -23.2175 0 0
rhand -31.2636 -23.8416 0
rfingers 7.12502 0 0
rthumb -4.53763 -53.7729 0
373
root 9.33553 17.0711 16.2112 6.20458 3.72204 -3.12444
lfemur -35.7151 5.4973 -17.8881
ltibia 55.1608 0 0
lfoot -14.928 11.8154 0
ltoes -3.24045 0 0
rfemur -12.5453 6.16655 29.1828
rtibia 28.751 0 0
rfoot -19.2392 3.15822 0
rtoes -14.1518 0 0
lowerback -5.76685 0.424179 0.180414
upperback -0.679561 0.480195 2.78835
thorax 2.51135 0.230361 2.81161
lowerneck -19.9861 -6.24637 -12.4559
upperneck 21.49 -8.1014 12.524
head 11.3516 -3.24089 5.4093
lclavicle -9.19379e-16 1.07344e-14 0
lhumerus -46.8679 -17.7878 97.599
lradius 28.256 0 0
lwrist 12.1942 0 0
lhand -14.627 -22.3701 0
lfingers 7.12502 0 0
lthumb 11.5245 7.29306 0
rclavicle -9.19379e-16 1.07344e-14 0
rhumerus -32.9454 18.3189 -83.9713
rradius 44.3713 0 0
rwrist -23.2521 0 0
rhand -31.2908 -23.7895 0
rfingers 7.12502 0 0
rthumb -4.56391 -53.7204 0
374
root 9.3411 17.0732 16.3423 6.2143 3.52655 -3.23451
lfemur -36.4802 5.31271 -17.8191
ltibia 54.7209 0 0
lfoot -15.3642 11.9871 0
ltoes -3.28297 0 0
rfemur -11.6885 6.21888 29.3371
rtibia 28.0423 0 0
rfoot -19.15 3.25704 0
rtoes -14.1051 0 0
lowerback -5.80436 0.543704 0.27553
upperback -0.647951 0.629201 2.80445
thorax 2.55607 0.305391 2.79101
lowerneck -19.9773 -6.25571 -12.4587
upperneck 21.4963 -8.11044 12.5058
head 11.3529 -3.24747 5.40145
lclavicle -6.88432e-16 1.02374e-14 0
lhumerus -47.2591 -17.5952 97.534
lradius 28.3022 0 0
lwrist 12.2697 0 0
lhand -14.615 -22.4391 0
lfingers 7.12502 0 0
lthumb 11.536 7.22325 0
rclavicle -6.88432e-16 1.02374e-14 0
rhumerus -32.6385 18.4683 -84.0242
rradius 44.4878 0 0
rwrist -23.2586 0 0
rhand -31.312 -23.7283 0
rfingers 7.12502 0 0
rthumb -4.58434 -53.6589 0
375
root 9.34696 17.0737 16.4734 6.22297 3.32952 -3.36137
lfemur -37.1922 5.09787 -17.6951
ltibia 54.149 0 0
lfoot -15.7599 12.1516 0
ltoes -3.3858 0 0
rfemur -10.767 6.26895 29.5061
rtibia 27.2248 0 0
rfoot -19.0385 3.37096 0
rtoes -14.0377 0 0
lowerback -5.85239 0.663158 0.379766
upperback -0.611291 0.776565 2.82859
thorax 2.61297 0.379612 2.77435
lowerneck -19.9684 -6.26382 -12.4646
upperneck 21.499 -8.11762 12.4924
head 11.353 -3.25292 5.39622
lclavicle -4.14227e-16 9.57522e-15 0
lhumerus -47.6439 -17.3897 97.479
lradius 28.3443 0 0
lwrist 12.3284 0 0
lhand -14.5821 -22.5225 0
lfingers 7.12502 0 0
lthumb 11.5678 7.13774 0
rclavicle -4.14227e-16 9.57522e-15 0
rhumerus -32.3231 18.5868 -84.0692
rradius 44.574 0 0
rwrist -23.241 0 0
rhand -31.3283 -23.6548 0
rfingers 7.12502 0 0
rthumb -4.60013 -53.5852 0
376
root 9.35314 17.0729 16.6046 6.23071 3.13128 -3.50353
lfemur -37.8529 4.85518 -17.52
ltibia 53.4543 0 0
lfoot -16.1166 12.3089 0
ltoes -3.54448 0 0
rfemur -9.78659 6.31658 29.688
rtibia 26.3082 0 0
rfoot -18.9051 3.49859 0
rtoes -13.9512 0 0
lowerback -5.91014 0.782357 0.49223
upperback -0.570112 0.922172 2.86014
thorax 2.68098 0.452968 2.76137
lowerneck -19.9592 -6.27074 -12.4736
upperneck 21.4983 -8.123 12.4837
head 11.3519 -3.2573 5.39351
lclavicle -9.95027e-17 8.75999e-15 0
lhumerus -48.0216 -17.172 97.4332
lradius 28.382 0 0
lwrist 12.3708 0 0
lhand -14.5295 -22.6191 0
lfingers 7.12502 0 0
lthumb 11.6185 7.03769 0
rclavicle -9.95027e-17 8.75999e-15 0
rhumerus -32.0009 18.676 -84.107
rradius 44.631 0 0
rwrist -23.2006 0 0
rhand -31.34 -23.57 0
rfingers 7.12502 0 0
rthumb -4.6114 -53.5005 0
377
root 9.35962 17.0706 16.7358 6.23764 2.93214 -3.65951
lfemur -38.4642 4.58705 -17.298
ltibia 52.6459 0 0
lfoot -16.4357 12.459 0
ltoes -3.75452 0 0
rfemur -8.7532 6.36157 29.8812
rtibia 25.3023 0 0
rfoot -18.75 3.63853 0
rtoes -13.8472 0 0
lowerback -5.97681 0.901116 0.612028
upperback -0.524944 1.06591 2.89845
thorax 2.75906 0.525402 2.75184
lowerneck -19.9497 -6.2765 -12.4856
upperneck 21.4946 -8.12666 12.4794
head 11.3498 -3.26065 5.39318
lclavicle 2.53e-16 7.80383e-15 0
lhumerus -48.3919 -16.9429 97.3957
lradius 28.4152 0 0
lwrist 12.397 0 0
lhand -14.4585 -22.728 0
lfingers 7.12502 0 0
lthumb 11.6868 6.92429 0
rclavicle 2.53e-16 7.80383e-15 0
rhumerus -31.6736 18.7372 -84.1382
rradius 44.6602 0 0
rwrist -23.1387 0 0
rhand -31.3471 -23.4752 0
rfingers 7.12502 0 0
rthumb -4.61827 -53.4057 0
378
root 9.36643 17.0672 16.8672 6.24386 2.73243 -3.82784
lfemur -39.0279 4.29589 -17.0333
ltibia 51.7328 0 0
lfoot -16.7185 12.6016 0
ltoes -4.01146 0 0
rfemur -7.67277 6.40375 30.084
rtibia 24.2167 0 0
rfoot -18.5737 3.78937 0
rtoes -13.7273 0 0
lowerback -6.05158 1.01925 0.738268
upperback -0.476317 1.20767 2.94286
thorax 2.84614 0.596857 2.74551
lowerneck -19.9399 -6.28115 -12.5002
upperneck 21.4882 -8.12867 12.4791
head 11.3465 -3.26303 5.3951
lclavicle 6.40542e-16 6.71884e-15 0
lhumerus -48.754 -16.7033 97.3657
lradius 28.4438 0 0
lwrist 12.4076 0 0
lhand -14.3706 -22.8478 0
lfingers 7.12502 0 0
lthumb 11.7716 6.79872 0
rclavicle 6.40542e-16 6.71884e-15 0
rhumerus -31.3428 18.7719 -84.1635
rradius 44.6627 0 0
rwrist -23.0565 0 0
rhand -31.3498 -23.3713 0
rfingers 7.12502 0 0
rthumb -4.62085 -53.3019 0
379
root 9.37356 17.0626 16.9987 6.24951 2.53247 -4.00703
lfemur -39.5459 3.98409 -16.73
ltibia 50.7242 0 0
lfoot -16.9667 12.7369 0
ltoes -4.31082 0 0
rfemur -6.5512 6.44292 30.2948
rtibia 23.0613 0 0
rfoot -18.3766 3.94971 0
rtoes -13.5931 0 0
lowerback -6.13365 1.13657 0.870057
upperback -0.424763 1.34732 2.99274
thorax 2.94117 0.667276 2.7421
lowerneck -19.9296 -6.28471 -12.5176
upperneck 21.4792 -8.12909 12.4828
head 11.3424 -3.26449 5.39916
lclavicle 1.06038e-15 5.51713e-15 0
lhumerus -49.1074 -16.4537 97.3422
lradius 28.4676 0 0
lwrist 12.4027 0 0
lhand -14.2668 -22.9777 0
lfingers 7.12502 0 0
lthumb 11.8716 6.66216 0
rclavicle 1.06038e-15 5.51713e-15 0
rhumerus -31.0101 18.7815 -84.1835
rradius 44.6399 0 0
rwrist -22.9553 0 0
rhand -31.3481 -23.2595 0
rfingers 7.12502 0 0
rthumb -4.61927 -53.1903 0
380
root 9.38103 17.057 17.1303 6.25469 2.33259 -4.1956
lfemur -40.0201 3.65406 -16.3923
ltibia 49.6291 0 0
lfoot -17.1815 12.8646 0
ltoes -4.64813 0 0
rfemur -5.3944 6.4789 30.5119
rtibia 21.8458 0 0
rfoot -18.1591 4.11815 0
rtoes -13.4463 0 0
lowerback -6.22221 1.2529 1.0065
upperback -0.37081 1.48477 3.04743
thorax 3.04308 0.736604 2.74139
lowerneck -19.9188 -6.28723 -12.5374
upperneck 21.4679 -8.12799 12.49
head 11.3373 -3.26508 5.40522
lclavicle 1.50978e-15 4.21081e-15 0
lhumerus -49.4516 -16.1951 97.3245
lradius 28.4865 0 0
lwrist 12.3827 0 0
lhand -14.1486 -23.1165 0
lfingers 7.12502 0 0
lthumb 11.9855 6.51577 0
rclavicle 1.50978e-15 4.21081e-15 0
rhumerus -30.6774 18.7674 -84.1988
rradius 44.5929 0 0
rwrist -22.8362 0 0
rhand -31.3423 -23.1407 0
rfingers 7.12502 0 0
rthumb -4.61364 -53.0718 0
381
root 9.38885 17.0505 17.2622 6.25951 2.13309 -4.39207
lfemur -40.4523 3.30821 -16.0242
ltibia 48.4566 0 0
lfoot -17.3644 12.9849 0
ltoes -5.01891 0 0
rfemur -4.20829 6.51151 30.7337
rtibia 20.58 0 0
rfoot -17.9214 4.2933 0
rtoes -13.2883 0 0
lowerback -6.31645 1.36804 1.14671
upperback -0.314991 1.6199 3.10628
thorax 3.15084 0.804783 2.74312
lowerneck -19.9074 -6.28874 -12.5596
upperneck 21.4547 -8.12545 12.5006
head 11.3315 -3.26485 5.41316
lclavicle 1.986e-15 2.812e-15 0
lhumerus -49.7859 -15.9282 97.3116
lradius 28.5003 0 0
lwrist 12.348 0 0
lhand -14.0173 -23.263 0
lfingers 7.12502 0 0
lthumb 12.1121 6.36076 0
rclavicle 1.986e-15 2.812e-15 0
rhumerus -30.3462 18.7311 -84.2101
rradius 44.5232 0 0
rwrist -22.7006 0 0
rhand -31.3324 -23.0162 0
rfingers 7.12502 0 0
rthumb -4.60408 -52.9477 0
382
root 9.39701 17.0431 17.3944 6.2641 1.93431 -4.59496
lfemur -40.8445 2.94894 -15.6299
ltibia 47.2158 0 0
lfoot -17.5169 13.0975 0
ltoes -5.41869 0 0
rfemur -2.99878 6.54056 30.9584
rtibia 19.2735 0 0
rfoot -17.664 4.47374 0
rtoes -13.1209 0 0
lowerback -6.41556 1.48182 1.28979
upperback -0.257835 1.75259 3.16866
thorax 3.26336 0.871757 2.74704
lowerneck -19.8953 -6.28929 -12.584
upperneck 21.4397 -8.12154 12.5142
head 11.3249 -3.26387 5.42285
lclavicle 2.4863e-15 1.3328e-15 0
lhumerus -50.1099 -15.6538 97.3028
lradius 28.509 0 0
lwrist 12.2989 0 0
lhand -13.8741 -23.4162 0
lfingers 7.12502 0 0
lthumb 12.2501 6.19828 0
rclavicle 2.4863e-15 1.3328e-15 0
rhumerus -30.0183 18.6741 -84.218
rradius 44.4318 0 0
rwrist -22.5497 0 0
rhand -31.3185 -22.887 0
rfingers 7.12502 0 0
rthumb -4.5907 -52.8189 0
